name test.mot
datacolumns 19
datarows 15
range 0.33166900000000 0.35500500000000
endheader
time	ground_force1_vx	ground_force1_vy	ground_force1_vz	ground_force1_px	ground_force1_py	ground_force1_pz	ground_force2_vx	ground_force2_vy	ground_force2_vz	ground_force2_px	ground_force2_py	ground_force2_pz	ground_torque1_x	ground_torque1_y	ground_torque1_z	ground_torque2_x	ground_torque2_y	ground_torque2_z	
0.33166900000000	-22.99328000000000	720.40700700000002	-56.84867600000000	-0.11945300000000	0.00000000000000	-0.15356500000000	0.00000000000000	0.00000000000000	0.00000000000000	0.00000000000000	0.00000000000000	0.00000000000000	0.00000000000000	7.19565000000000	0.00000000000000	0.00000000000000	0.00000000000000	0.00000000000000	
0.33333600000000	-23.49744400000000	720.40786300000002	-56.84713400000000	-0.12029000000000	0.00000000000000	-0.15362200000000	0.00000000000000	0.00000000000000	0.00000000000000	0.00000000000000	0.00000000000000	0.00000000000000	0.00000000000000	7.09839500000000	0.00000000000000	0.00000000000000	0.00000000000000	0.00000000000000	
0.33500900000000	-23.99776200000000	720.42923399999995	-56.84896300000000	-0.12112100000000	0.00000000000000	-0.15367900000000	0.00000000000000	0.00000000000000	0.00000000000000	0.00000000000000	0.00000000000000	0.00000000000000	0.00000000000000	7.00228700000000	0.00000000000000	0.00000000000000	0.00000000000000	0.00000000000000	
0.33666400000000	-24.49400300000000	720.47104500000000	-56.85425100000000	-0.12194400000000	0.00000000000000	-0.15373700000000	0.00000000000000	0.00000000000000	0.00000000000000	0.00000000000000	0.00000000000000	0.00000000000000	0.00000000000000	6.90743400000000	0.00000000000000	0.00000000000000	0.00000000000000	0.00000000000000	
0.33833400000000	-24.98594500000000	720.53313800000001	-56.86308000000000	-0.12276100000000	0.00000000000000	-0.15379600000000	0.00000000000000	0.00000000000000	0.00000000000000	0.00000000000000	0.00000000000000	0.00000000000000	0.00000000000000	6.81393900000000	0.00000000000000	0.00000000000000	0.00000000000000	0.00000000000000	
0.34000700000000	-25.47337900000000	720.61527300000000	-56.87552700000000	-0.12357000000000	0.00000000000000	-0.15385500000000	0.00000000000000	0.00000000000000	0.00000000000000	0.00000000000000	0.00000000000000	0.00000000000000	0.00000000000000	6.72190400000000	0.00000000000000	0.00000000000000	0.00000000000000	0.00000000000000	
0.34166100000000	-25.95610900000000	720.71712900000000	-56.89166100000000	-0.12437200000000	0.00000000000000	-0.15391400000000	0.00000000000000	0.00000000000000	0.00000000000000	0.00000000000000	0.00000000000000	0.00000000000000	0.00000000000000	6.63142900000000	0.00000000000000	0.00000000000000	0.00000000000000	0.00000000000000	
0.34334500000000	-26.43395200000000	720.83830300000000	-56.91154600000000	-0.12516600000000	0.00000000000000	-0.15397400000000	0.00000000000000	0.00000000000000	0.00000000000000	0.00000000000000	0.00000000000000	0.00000000000000	0.00000000000000	6.54261000000000	0.00000000000000	0.00000000000000	0.00000000000000	0.00000000000000	
0.34500600000000	-26.90673600000000	720.97831399999995	-56.93524300000000	-0.12595300000000	0.00000000000000	-0.15403400000000	0.00000000000000	0.00000000000000	0.00000000000000	0.00000000000000	0.00000000000000	0.00000000000000	0.00000000000000	6.45554000000000	0.00000000000000	0.00000000000000	0.00000000000000	0.00000000000000	
0.34666700000000	-27.37430300000000	721.13660100000004	-56.96280300000000	-0.12673200000000	0.00000000000000	-0.15409600000000	0.00000000000000	0.00000000000000	0.00000000000000	0.00000000000000	0.00000000000000	0.00000000000000	0.00000000000000	6.37031200000000	0.00000000000000	0.00000000000000	0.00000000000000	0.00000000000000	
0.34833200000000	-27.83651000000000	721.31252800000004	-56.99427600000000	-0.12750400000000	0.00000000000000	-0.15415800000000	0.00000000000000	0.00000000000000	0.00000000000000	0.00000000000000	0.00000000000000	0.00000000000000	0.00000000000000	6.28701200000000	0.00000000000000	0.00000000000000	0.00000000000000	0.00000000000000	
0.35000000000000	-28.29322300000000	721.50538400000005	-57.02970500000000	-0.12826900000000	0.00000000000000	-0.15422000000000	0.00000000000000	0.00000000000000	0.00000000000000	0.00000000000000	0.00000000000000	0.00000000000000	0.00000000000000	6.20572400000000	0.00000000000000	0.00000000000000	0.00000000000000	0.00000000000000	
0.35166400000000	-28.74432400000000	721.71438400000000	-57.06912700000000	-0.12902600000000	0.00000000000000	-0.15428400000000	0.00000000000000	0.00000000000000	0.00000000000000	0.00000000000000	0.00000000000000	0.00000000000000	0.00000000000000	6.12653100000000	0.00000000000000	0.00000000000000	0.00000000000000	0.00000000000000	
0.35332800000000	-29.18970700000000	721.93867799999998	-57.11257600000000	-0.12977500000000	0.00000000000000	-0.15434900000000	0.00000000000000	0.00000000000000	0.00000000000000	0.00000000000000	0.00000000000000	0.00000000000000	0.00000000000000	6.04950900000000	0.00000000000000	0.00000000000000	0.00000000000000	0.00000000000000	
0.35500500000000	-29.62927700000000	722.17734599999994	-57.16008200000000	-0.13051800000000	0.00000000000000	-0.15441400000000	0.00000000000000	0.00000000000000	0.00000000000000	0.00000000000000	0.00000000000000	0.00000000000000	0.00000000000000	5.97473300000000	0.00000000000000	0.00000000000000	0.00000000000000	0.00000000000000	
